# xmcd
# 
# Track frame offsets:
#     150
#     22064
#     47628
#     75959
#     102968
#     130936
#     153840
#     171506
#     194002
#     223306
#     247174
#     275451
# 
# Disc length: 4088
# 
# Revision: 0
# Processed by: cddbd v1.5.2PL0 Copyright (c) Steve Scherf et al.
# Submitted via: fre:ac v1.0.27
# 
DISCID=ae0ff60c
DTITLE=Davide Mantovani - Choices
DYEAR=2012
DGENRE=Jazz
TTITLE0=Atlantico Temporal
TTITLE1=Human...Kind?
TTITLE2=Choice Is Yours
TTITLE3=Bachorinho
TTITLE4=Goodbye Albatross
TTITLE5=Plejades
TTITLE6=Rio Deja Vu
TTITLE7=Restless Wrestlers
TTITLE8=A Cajola d'Oro
TTITLE9=Memory Box
TTITLE10=The Blue Rider
TTITLE11=Esperando Olivia
EXTD=
EXTT0=
EXTT1=
EXTT2=
EXTT3=
EXTT4=
EXTT5=
EXTT6=
EXTT7=
EXTT8=
EXTT9=
EXTT10=
EXTT11=
PLAYORDER=
